:version 1.10
:name ASF
:units
  mass 1
  length 1
  angle deg
:documentation
  ASF file generated by Kaydara
:root
  axis xyz
  order  tx ty tz rx ry rz
  position 0 0 0
  orientation 0 0 0
:bonedata
  begin
    id 1
    name RightUpLegDummy
    direction -0.718183 -0.695806 0.00816078
    length 4.904
    axis 0 0 0 xyz
  end
  begin
    id 2
    name RightUpLeg
    direction 3.53989e-006 -0.995788 0.0916897
    length 17.4976
    axis -3.49089 -0.000906621 0.000287158 xyz
    dof rx ry rz
  end
  begin
    id 3
    name RightLeg
    direction 0.00371093 -0.995096 -0.0988418
    length 16.5821
    axis 3.68512 0.0193738 -0.131023 xyz
    dof rx ry rz
  end
  begin
    id 4
    name RightFoot
    direction 0.000791514 -0.46099 0.887405
    length 3.77069
    axis 4.84075e-005 -0.120479 -0.188788 xyz
    dof rx ry rz
  end
  begin
    id 5
    name RightToes
    direction 0.00124746 -0.014064 0.9999
    length 3.85082
    axis 0.00048216 0.542163 -0.142577 xyz
    dof rx ry rz
  end
  begin
    id 6
    name SpineDummy
    direction 8.36599e-015 1 5.97571e-016
    length 4.6813
    axis 0 0 0 xyz
  end
  begin
    id 7
    name Spine
    direction -4.63632e-008 0.999988 0.00495137
    length 10.1015
    axis -0.00138897 0.000121419 3.25764e-006 xyz
    dof rx ry rz
  end
  begin
    id 8
    name Spine1
    direction 0 0 0
    length 0
    axis -0.00138896 0.000121452 2.39764e-006 xyz
    dof rx ry rz
  end
  begin
    id 9
    name HEadDummy
    direction -3.91456e-008 0.999999 0.00127422
    length 3.43865
    axis -0.00138896 0.000121452 2.39764e-006 xyz
  end
  begin
    id 10
    name HEad
    direction -0.0222688 0.980941 0.193023
    length 5.12695
    axis -0.00138895 0.000121452 2.39764e-006 xyz
    dof rx ry rz
  end
  begin
    id 11
    name LeftShoulder1Dummy
    direction 0.998891 -0.0402508 -0.0244456
    length 3.5433
    axis -0.00138896 0.000121452 2.39764e-006 xyz
  end
  begin
    id 12
    name LeftShoulder1
    direction 0.99951 -0.000327743 0.0313091
    length 4.05031
    axis -0.00138896 0.000121452 2.39764e-006 xyz
    dof rx ry rz
  end
  begin
    id 13
    name LeftArm
    direction 0.998561 -0.00100054 -0.0536182
    length 10.3537
    axis -23.1894 0.134784 0.96751 xyz
    dof rx ry rz
  end
  begin
    id 14
    name LeftForeArm
    direction 0.998903 0.00866434 0.046012
    length 8.70632
    axis -9.91835 -0.06569 -0.177792 xyz
    dof rx ry rz
  end
  begin
    id 15
    name LeftHand
    direction 0.992938 -0.0411636 0.11126
    length 5.32135
    axis -0.00960227 -0.00340091 0.185174 xyz
    dof rx ry rz
  end
  begin
    id 16
    name RightShoulderDummy
    direction -0.998891 -0.0402509 -0.0244414
    length 3.5433
    axis -0.00138896 0.000121452 2.39764e-006 xyz
  end
  begin
    id 17
    name RightShoulder
    direction -0.99951 -0.000327827 0.0313133
    length 4.05031
    axis 0.215806 0.000203644 -0.00680151 xyz
    dof rx ry rz
  end
  begin
    id 18
    name RightArm
    direction -0.998573 -0.000999583 -0.053403
    length 10.3947
    axis -23.2009 -0.134239 -0.9641 xyz
    dof rx ry rz
  end
  begin
    id 19
    name RightForeArm
    direction -0.998898 0.00868026 0.0461306
    length 8.68355
    axis -9.92322 0.0658061 0.178869 xyz
    dof rx ry rz
  end
  begin
    id 20
    name RightHand
    direction -0.992843 -0.0414603 0.112003
    length 5.28593
    axis -0.00960634 0.00330671 -0.185226 xyz
    dof rx ry rz
  end
  begin
    id 21
    name LeftUpLegDummy
    direction 0.718183 -0.695806 0.00816078
    length 4.904
    axis 0 0 0 xyz
  end
  begin
    id 22
    name LeftUpLeg
    direction -6.8115e-006 -0.995793 0.0916336
    length 17.4976
    axis -3.48766 0.00143441 -0.000523914 xyz
    dof rx ry rz
  end
  begin
    id 23
    name LeftLeg
    direction -0.00601357 -0.995091 -0.0987824
    length 16.5821
    axis 3.68177 -0.00654038 -0.00028478 xyz
    dof rx ry rz
  end
  begin
    id 24
    name LeftFoot
    direction -0.00417578 -0.460984 0.887399
    length 3.77069
    axis 1.87232e-006 4.66002e-005 -8.1837e-006 xyz
    dof rx ry rz
  end
  begin
    id 25
    name LeftToes
    direction 0.00818058 -0.00485161 0.999955
    length 3.85048
    axis 1.06246e-005 4.65855e-005 -8.18502e-006 xyz
    dof rx ry rz
  end
:hierarchy
  begin
    root RightUpLegDummy SpineDummy LeftUpLegDummy
    RightUpLegDummy RightUpLeg
    RightUpLeg RightLeg
    RightLeg RightFoot
    RightFoot RightToes
    SpineDummy Spine
    Spine Spine1
    Spine1 HEadDummy LeftShoulder1Dummy RightShoulderDummy
    HEadDummy HEad
    LeftShoulder1Dummy LeftShoulder1
    LeftShoulder1 LeftArm
    LeftArm LeftForeArm
    LeftForeArm LeftHand
    RightShoulderDummy RightShoulder
    RightShoulder RightArm
    RightArm RightForeArm
    RightForeArm RightHand
    LeftUpLegDummy LeftUpLeg
    LeftUpLeg LeftLeg
    LeftLeg LeftFoot
    LeftFoot LeftToes
  end

:SAMPLES-PER-SECOND 30
:FULLY-SPECIFIED
:DEGREES
20
root  -2.3303 37.0483 2.65059 7.6165 -57.7439 -2.1954
RightUpLeg  -16.7796 -16.0748 -19.3347
RightLeg  36.0086 6.77245 5.01395
RightFoot  -8.94163 -0.631423 27.7306
RightToes  -5.82094e-011 -1.98785e-016 -5.10186e-018
Spine  24.2994 -4.39281 1.22865
Spine1  -8.35607 -6.28957 15.3015
HEad  -40.0416 50.5063 -48.4875
LeftShoulder1  1.77396 -7.88173 -7.98358
LeftArm  -19.9278 -28.3348 -52.4697
LeftForeArm  80.592 -74.346 -30.3876
LeftHand  -0.133783 1.26932 4.06953
RightShoulder  2.53994 6.19805 19.7719
RightArm  9.22919 -25.5613 39.0375
RightForeArm  27.8367 61.9656 18.6503
RightHand  -2.74893 7.75195 -24.1452
LeftUpLeg  -45.9422 34.7096 -6.66364
LeftLeg  44.3546 -2.5034 -2.24678
LeftFoot  -4.47557 0.566373 -9.05012
LeftToes  -8.4584e-011 5.90861e-011 8.40072e-012
21
root  -2.40703 36.2015 2.97459 5.75341 -50.6777 -1.56023
RightUpLeg  -8.47414 -16.3897 -21.4035
RightLeg  34.7782 1.46547 0.834183
RightFoot  -15.4744 0.960663 30.1396
RightToes  -5.82094e-011 -1.98785e-016 -5.10186e-018
Spine  25.5791 -3.7685 -2.9524
Spine1  -9.17426 -7.44352 21.1712
HEad  -40.7639 48.477 -46.684
LeftShoulder1  2.72858 -9.17976 -14.6923
LeftArm  -17.9474 -24.9489 -57.5858
LeftForeArm  67.8691 -60.8817 -13.6905
LeftHand  -0.0623457 4.97208 8.96804
RightShoulder  2.83454 6.78982 21.2515
RightArm  8.83132 -20.9655 40.8123
RightForeArm  46.5237 71.5791 31.0819
RightHand  -3.36656 8.76184 -27.4562
LeftUpLeg  -47.8771 34.6564 -5.0199
LeftLeg  43.0021 7.71927 8.01472
LeftFoot  -8.4025 0.216658 -6.49791
LeftToes  -8.4584e-011 5.90861e-011 8.40072e-012
22
root  -2.54847 35.1488 3.58612 3.64548 -44.9654 -1.20778
RightUpLeg  -1.0668 -19.9677 -24.2081
RightLeg  33.259 2.05957 1.23944
RightFoot  -24.7759 3.25451 28.3959
RightToes  -5.82094e-011 -1.98785e-016 -5.10186e-018
Spine  25.9879 -2.97303 -2.32735
Spine1  -9.41297 -6.70295 20.9915
HEad  -38.61 44.6724 -41.395
LeftShoulder1  3.43921 -8.92247 -21.3171
LeftArm  -16.7314 -16.5645 -60.3177
LeftForeArm  66.744 -47.8948 -7.6924
LeftHand  0.454607 8.37635 16.8248
RightShoulder  3.02637 6.95597 22.7139
RightArm  6.14352 -14.7042 47.3111
RightForeArm  106.442 80.7987 83.5485
RightHand  -3.19233 9.26767 -25.2321
LeftUpLeg  -49.5711 34.2047 -2.92357
LeftLeg  40.3225 13.1654 12.1099
LeftFoot  -11.0786 0.0702865 -4.36489
LeftToes  -8.4584e-011 5.90861e-011 8.40072e-012
23
root  -2.56172 34.2237 4.77095 4.28344 -42.2031 -3.78604
RightUpLeg  3.37039 -23.1029 -26.5785
RightLeg  34.4135 4.76913 3.14722
RightFoot  -26.4683 3.88742 29.93
RightToes  -5.82094e-011 -1.98785e-016 -5.10186e-018
Spine  25.329 -3.6428 7.28949
Spine1  -10.7244 -3.41742 9.8247
HEad  -35.2432 39.4729 -36.0526
LeftShoulder1  3.37127 -7.58891 -24.3265
LeftArm  -16.7258 -1.94507 -59.6466
LeftForeArm  63.7525 -36.0174 -4.58225
LeftHand  2.05791 13.5012 28.9751
RightShoulder  3.38333 8.0641 23.0889
RightArm  5.78871 0.303929 53.6135
RightForeArm  167.038 76.7837 139.924
RightHand  -3.36419 10.4042 -24.6864
LeftUpLeg  -51.858 34.3994 0.918582
LeftLeg  36.6743 13.6565 11.0832
LeftFoot  -14.1147 -0.0122185 -4.157
LeftToes  -8.4584e-011 5.90861e-011 8.40072e-012
24
root  -3.07756 33.711 6.7914 3.37804 -37.1206 -4.77418
RightUpLeg  13.79 -21.8986 -28.4083
RightLeg  27.683 2.14039 1.31804
RightFoot  -24.7457 4.04245 34.7949
RightToes  -5.82094e-011 -1.98785e-016 -5.10186e-018
Spine  22.1706 -1.71785 10.7779
Spine1  -11.4632 -0.432283 6.19344
HEad  -27.2623 33.284 -29.9493
LeftShoulder1  2.77763 -4.79673 -27.2532
LeftArm  -21.6113 13.048 -54.0037
LeftForeArm  57.0495 -21.6672 -2.63975
LeftHand  3.56978 16.6782 35.1161
RightShoulder  3.31022 8.6619 20.791
RightArm  5.89978 20.5027 53.0027
RightForeArm  175.013 73.7404 148.028
RightHand  -3.44151 10.269 -25.4395
LeftUpLeg  -52.6142 34.3376 2.01536
LeftLeg  34.7515 12.1455 9.25001
LeftFoot  -16.3417 -0.054132 -3.47656
LeftToes  -8.4584e-011 5.90861e-011 8.40072e-012
25
root  -3.83011 33.2604 9.51775 -0.93933 -29.334 -1.55686
RightUpLeg  26.8259 -10.0424 -25.4652
RightLeg  19.2076 -16.1719 -6.35657
RightFoot  -16.4101 1.65064 45.4165
RightToes  -5.82094e-011 -1.98785e-016 -5.10186e-018
Spine  21.0773 2.00163 9.65549
Spine1  -18.0236 3.07311 0.740423
HEad  -12.3249 24.4459 -17.7588
LeftShoulder1  1.58072 -2.02339 -21.8811
LeftArm  -31.9565 27.5892 -44.1754
LeftForeArm  48.078 -15.5985 -4.18088
LeftHand  5.20173 19.6483 39.8246
RightShoulder  2.49909 7.50333 16.0642
RightArm  -1.90267 23.8968 48.8193
RightForeArm  179.369 71.1873 152.824
RightHand  -3.45014 10.4706 -25.2523
LeftUpLeg  -51.2079 32.686 -1.19285
LeftLeg  40.429 13.9466 12.9589
LeftFoot  -14.9127 -0.0474522 -4.38152
LeftToes  -8.4584e-011 5.90861e-011 8.40072e-012
26
root  -4.36994 32.916 12.6611 -1.48198 -20.3551 2.14215
RightUpLeg  32.4307 -0.285495 -17.6991
RightLeg  22.7935 -40.7906 -17.8893
RightFoot  1.59101 -5.03613 47.7526
RightToes  -5.82094e-011 -1.98785e-016 -5.10186e-018
Spine  11.6324 5.0981 13.9146
Spine1  -15.2355 6.87836 -17.7478
HEad  -2.81382 8.48948 -6.14937
LeftShoulder1  0.640088 -0.178592 -10.461
LeftArm  -27.8687 30.0561 -31.2794
LeftForeArm  34.0904 -25.0653 -3.2991
LeftHand  6.38498 21.5269 42.884
RightShoulder  2.08593 6.84369 13.1302
RightArm  -12.8635 11.5462 39.459
RightForeArm  174 68.4329 156.153
RightHand  -3.64609 9.08403 -28.5073
LeftUpLeg  -51.6131 26.453 -5.80107
LeftLeg  49.1665 14.7518 17.7992
LeftFoot  -15.0673 -0.0521419 -4.22609
LeftToes  -8.4584e-011 5.90861e-011 8.40072e-012
27
root  -4.62719 32.7732 15.5031 -1.40454 -8.50812 5.37104
RightUpLeg  28.6989 -6.66747 -19.1232
RightLeg  41.4871 -32.4666 -24.9918
RightFoot  13.3869 -5.45026 23.6739
RightToes  -5.82094e-011 -1.98785e-016 -5.10186e-018
Spine  2.58824 9.22509 11.2916
Spine1  -6.96734 11.6522 -26.319
HEad  -1.33592 -8.9097 -0.579867
LeftShoulder1  0.32521 0.515834 -3.02323
LeftArm  -29.0817 9.67311 -23.1077
LeftForeArm  42.2122 -27.1587 -3.59658
LeftHand  5.30575 21.1579 36.8546
RightShoulder  1.44329 4.11065 12.053
RightArm  -16.3311 -6.12511 30.1541
RightForeArm  159.499 73.0776 146.443
RightHand  -4.96899 10.5266 -35.4431
LeftUpLeg  -49.9416 19.0731 -11.6133
LeftLeg  50.8572 10.6797 14.1911
LeftFoot  -11.9432 0.0566524 0.331579
LeftToes  -8.4584e-011 5.90861e-011 8.40072e-012
28
root  -4.79083 32.6207 17.6411 -6.02189 6.93391 4.81336
RightUpLeg  24.3799 -18.5163 -19.9323
RightLeg  56.8714 -4.28091 -8.53984
RightFoot  8.65965 -3.21046 18.4728
RightToes  -5.82094e-011 -1.98785e-016 -5.10186e-018
Spine  8.55917 8.59672 1.29105
Spine1  -7.206 9.82002 -20.5021
HEad  -1.10803 -21.2914 2.54664
LeftShoulder1  0.279196 1.18746 -4.16765
LeftArm  -28.1693 -13.8016 -19.5599
LeftForeArm  49.4424 -33.5419 -4.77977
LeftHand  3.31735 17.8551 29.8017
RightShoulder  1.20943 2.11326 14.6713
RightArm  -14.4115 -21.8078 23.8506
RightForeArm  95.9657 79.2897 81.7695
RightHand  -3.37084 9.08319 -26.769
LeftUpLeg  -41.7417 13.9496 -12.3807
LeftLeg  52.5622 6.7815 9.84986
LeftFoot  -8.38767 -0.0539152 4.86626
LeftToes  -8.4584e-011 5.90861e-011 8.40072e-012
29
root  -5.19208 32.9643 20.045 -8.50925 25.411 3.01389
RightUpLeg  13.9695 -31.1607 -19.4724
RightLeg  73.8269 -1.70681 -10.2429
RightFoot  4.88155 -1.9257 13.5985
RightToes  -5.82094e-011 -1.98785e-016 -5.10186e-018
Spine  11.8371 5.22561 -14.1734
Spine1  -7.34605 3.2986 -6.99873
HEad  -0.00677491 -28.4808 6.43887
LeftShoulder1  0.594989 -1.12297 -4.9858
LeftArm  -22.8678 -24.7157 -21.6953
LeftForeArm  60.772 -45.414 -7.32253
LeftHand  1.91474 14.2113 24.9301
RightShoulder  1.65277 3.21684 17.9815
RightArm  -10.9602 -29.1406 24.1749
RightForeArm  29.5535 62.0789 17.0164
RightHand  -2.48481 7.77931 -22.0287
LeftUpLeg  -34.7411 9.93791 -12.6868
LeftLeg  53.4157 -0.0366977 0.459324
LeftFoot  -9.97988 -0.0533793 9.45144
LeftToes  -8.4584e-011 5.90861e-011 8.40072e-012
30
root  -5.49772 33.647 22.1061 -10.9854 37.5885 -2.39888
RightUpLeg  -7.05376 -32.9914 -13.7865
RightLeg  82.1446 -2.96192 -26.6804
RightFoot  -2.05978 -0.937908 11.5387
RightToes  -5.82094e-011 -1.98785e-016 -5.10186e-018
Spine  15.1943 3.5223 -22.3432
Spine1  -7.09712 -1.13303 3.29867
HEad  1.27466 -33.6551 8.26268
LeftShoulder1  1.5454 -6.03686 -8.29309
LeftArm  -15.3711 -33.5683 -28.8762
LeftForeArm  65.535 -49.0292 -8.34842
LeftHand  1.41616 12.3299 23.615
RightShoulder  2.53093 4.98144 23.6416
RightArm  -9.66776 -29.8362 23.6939
RightForeArm  19.1767 47.289 10.3627
RightHand  -2.7788 8.78706 -22.6745
LeftUpLeg  -31.439 7.33746 -8.25774
LeftLeg  54.4111 -5.33177 -7.47612
LeftFoot  -11.035 0.0329178 12.2092
LeftToes  -8.4584e-011 5.90861e-011 8.40072e-012
31
root  -5.88587 34.4189 23.6538 -22.4388 44.1884 -13.082
RightUpLeg  -20.473 -25.8796 -12.8937
RightLeg  76.682 -6.34993 -29.1844
RightFoot  -4.39859 -0.779927 12.3019
RightToes  -5.82094e-011 -1.98785e-016 -5.10186e-018
Spine  22.9215 3.46328 -22.3644
Spine1  -4.73386 -4.1568 11.2977
HEad  0.956001 -34.3394 9.34983
LeftShoulder1  3.12916 -13.3538 -11.6828
LeftArm  -10.5263 -42.4942 -37.4399
LeftForeArm  64.2051 -39.7995 -5.63497
LeftHand  1.58749 12.1219 26.6431
RightShoulder  3.44067 6.82389 27.3919
RightArm  -8.72123 -22.0238 22.3342
RightForeArm  12.3895 37.8469 7.99165
RightHand  -2.10453 9.31515 -16.8391
LeftUpLeg  -25.1828 5.2556 1.05989
LeftLeg  55.3165 -8.23802 -12.069
LeftFoot  -11.8215 0.126795 13.4258
LeftToes  -8.4584e-011 5.90861e-011 8.40072e-012
32
root  -6.25479 35.3561 25.1533 -35.91 47.9833 -25.3702
RightUpLeg  -25.0185 -22.8458 -19.293
RightLeg  60.4211 -15.3304 -27.6785
RightFoot  -3.28117 -1.01931 14.0488
RightToes  -5.82094e-011 -1.98785e-016 -5.10186e-018
Spine  27.6323 3.36398 -24.0938
Spine1  2.73397 -8.80817 22.4769
HEad  -2.22599 -30.657 12.4136
LeftShoulder1  3.28042 -18.8094 -6.96367
LeftArm  -11.8681 -49.33 -40.4754
LeftForeArm  60.2461 -30.8585 -3.55259
LeftHand  2.34817 14.0504 30.6263
RightShoulder  3.90663 8.54034 26.4145
RightArm  -1.68504 -3.88432 22.061
RightForeArm  10.6975 26.6769 4.99568
RightHand  -2.97313 11.6631 -20.3482
LeftUpLeg  -19.3073 2.9764 10.282
LeftLeg  54.1342 -9.56922 -13.4727
LeftFoot  -12.2639 0.176378 12.7854
LeftToes  -8.4584e-011 5.90861e-011 8.40072e-012
33
root  -6.3291 36.5666 26.277 -47.2337 46.1578 -37.4834
RightUpLeg  -27.2356 -23.7642 -23.1728
RightLeg  35.4598 -21.8162 -16.3024
RightFoot  -1.49557 -1.30959 15.0366
RightToes  -5.82094e-011 -1.98785e-016 -5.10186e-018
Spine  34.3382 1.1011 -16.2923
Spine1  4.5975 -10.7357 25.4288
HEad  -3.73722 -25.9417 12.8251
LeftShoulder1  1.60217 -18.0295 1.16282
LeftArm  -16.6362 -56.0655 -37.5444
LeftForeArm  58.9598 -32.4847 -4.02421
LeftHand  2.31649 14.2623 29.3199
RightShoulder  4.00636 10.2065 23.0808
RightArm  1.33802 12.25 19.7008
RightForeArm  12.2878 19.002 5.06787
RightHand  -3.57953 12.9138 -22.8023
LeftUpLeg  -15.0422 4.09802 20.5127
LeftLeg  50.3949 -8.44358 -10.3785
LeftFoot  -11.6553 0.100304 10.9243
LeftToes  -8.4584e-011 5.90861e-011 8.40072e-012
